%TF.GenerationSoftware,KiCad,Pcbnew,9.0.6*%
%TF.CreationDate,2026-01-16T14:00:41+01:00*%
%TF.ProjectId,TapperDev,54617070-6572-4446-9576-2e6b69636164,rev?*%
%TF.SameCoordinates,Original*%
%TF.FileFunction,Paste,Top*%
%TF.FilePolarity,Positive*%
%FSLAX46Y46*%
G04 Gerber Fmt 4.6, Leading zero omitted, Abs format (unit mm)*
G04 Created by KiCad (PCBNEW 9.0.6) date 2026-01-16 14:00:41*
%MOMM*%
%LPD*%
G01*
G04 APERTURE LIST*
G04 Aperture macros list*
%AMRoundRect*
0 Rectangle with rounded corners*
0 $1 Rounding radius*
0 $2 $3 $4 $5 $6 $7 $8 $9 X,Y pos of 4 corners*
0 Add a 4 corners polygon primitive as box body*
4,1,4,$2,$3,$4,$5,$6,$7,$8,$9,$2,$3,0*
0 Add four circle primitives for the rounded corners*
1,1,$1+$1,$2,$3*
1,1,$1+$1,$4,$5*
1,1,$1+$1,$6,$7*
1,1,$1+$1,$8,$9*
0 Add four rect primitives between the rounded corners*
20,1,$1+$1,$2,$3,$4,$5,0*
20,1,$1+$1,$4,$5,$6,$7,0*
20,1,$1+$1,$6,$7,$8,$9,0*
20,1,$1+$1,$8,$9,$2,$3,0*%
G04 Aperture macros list end*
%ADD10R,1.150000X0.300000*%
%ADD11RoundRect,0.237500X-0.250000X-0.237500X0.250000X-0.237500X0.250000X0.237500X-0.250000X0.237500X0*%
%ADD12RoundRect,0.237500X0.237500X-0.250000X0.237500X0.250000X-0.237500X0.250000X-0.237500X-0.250000X0*%
%ADD13RoundRect,0.237500X0.250000X0.237500X-0.250000X0.237500X-0.250000X-0.237500X0.250000X-0.237500X0*%
%ADD14RoundRect,0.218750X0.256250X-0.218750X0.256250X0.218750X-0.256250X0.218750X-0.256250X-0.218750X0*%
%ADD15RoundRect,0.237500X-0.237500X0.250000X-0.237500X-0.250000X0.237500X-0.250000X0.237500X0.250000X0*%
%ADD16RoundRect,0.237500X0.237500X-0.287500X0.237500X0.287500X-0.237500X0.287500X-0.237500X-0.287500X0*%
%ADD17RoundRect,0.237500X0.300000X0.237500X-0.300000X0.237500X-0.300000X-0.237500X0.300000X-0.237500X0*%
%ADD18RoundRect,0.237500X-0.300000X-0.237500X0.300000X-0.237500X0.300000X0.237500X-0.300000X0.237500X0*%
%ADD19RoundRect,0.150000X0.150000X-0.512500X0.150000X0.512500X-0.150000X0.512500X-0.150000X-0.512500X0*%
%ADD20R,1.000000X1.250000*%
%ADD21RoundRect,0.100000X0.100000X-0.637500X0.100000X0.637500X-0.100000X0.637500X-0.100000X-0.637500X0*%
%ADD22RoundRect,0.150000X-0.150000X0.512500X-0.150000X-0.512500X0.150000X-0.512500X0.150000X0.512500X0*%
%ADD23RoundRect,0.237500X-0.287500X-0.237500X0.287500X-0.237500X0.287500X0.237500X-0.287500X0.237500X0*%
%ADD24RoundRect,0.087500X0.087500X-0.725000X0.087500X0.725000X-0.087500X0.725000X-0.087500X-0.725000X0*%
%ADD25RoundRect,0.150000X-0.587500X-0.150000X0.587500X-0.150000X0.587500X0.150000X-0.587500X0.150000X0*%
%ADD26R,1.200000X1.200000*%
G04 APERTURE END LIST*
D10*
%TO.C,J1*%
X131000000Y-103350000D03*
X131000000Y-102550000D03*
X131000000Y-101250000D03*
X131000000Y-100250000D03*
X131000000Y-99750000D03*
X131000000Y-98750000D03*
X131000000Y-97450000D03*
X131000000Y-96650000D03*
X131000000Y-96950000D03*
X131000000Y-97750000D03*
X131000000Y-98250000D03*
X131000000Y-99250000D03*
X131000000Y-100750000D03*
X131000000Y-101750000D03*
X131000000Y-102250000D03*
X131000000Y-103050000D03*
%TD*%
D11*
%TO.C,R6*%
X103337500Y-89500000D03*
X105162500Y-89500000D03*
%TD*%
D12*
%TO.C,R17*%
X134500000Y-87412500D03*
X134500000Y-85587500D03*
%TD*%
%TO.C,R16*%
X136500000Y-87412500D03*
X136500000Y-85587500D03*
%TD*%
D13*
%TO.C,R1*%
X117412500Y-78250000D03*
X115587500Y-78250000D03*
%TD*%
D14*
%TO.C,F1*%
X128500000Y-96287500D03*
X128500000Y-94712500D03*
%TD*%
D15*
%TO.C,R18*%
X127250000Y-79337500D03*
X127250000Y-81162500D03*
%TD*%
D16*
%TO.C,D3*%
X109000000Y-90875000D03*
X109000000Y-89125000D03*
%TD*%
D15*
%TO.C,R4*%
X109000000Y-85587500D03*
X109000000Y-87412500D03*
%TD*%
D16*
%TO.C,D1*%
X117500000Y-76287500D03*
X117500000Y-74537500D03*
%TD*%
D17*
%TO.C,C18*%
X128362500Y-93000000D03*
X126637500Y-93000000D03*
%TD*%
D18*
%TO.C,C17*%
X130137500Y-89000000D03*
X131862500Y-89000000D03*
%TD*%
D13*
%TO.C,R14*%
X114662500Y-82750000D03*
X112837500Y-82750000D03*
%TD*%
D19*
%TO.C,U2*%
X122500000Y-78675000D03*
X123450000Y-78675000D03*
X124400000Y-78675000D03*
X124400000Y-76400000D03*
X122500000Y-76400000D03*
%TD*%
D20*
%TO.C,SW2*%
X106000000Y-79875000D03*
X106000000Y-87625000D03*
%TD*%
D18*
%TO.C,C4*%
X122887500Y-95750000D03*
X124612500Y-95750000D03*
%TD*%
D11*
%TO.C,R9*%
X126837500Y-102000000D03*
X128662500Y-102000000D03*
%TD*%
D20*
%TO.C,SW3*%
X110750000Y-116875000D03*
X110750000Y-109125000D03*
%TD*%
D13*
%TO.C,R7*%
X120162500Y-100000000D03*
X118337500Y-100000000D03*
%TD*%
D21*
%TO.C,U1*%
X108150000Y-99000000D03*
X108800000Y-99000000D03*
X109450000Y-99000000D03*
X110100000Y-99000000D03*
X110750000Y-99000000D03*
X111400000Y-99000000D03*
X112050000Y-99000000D03*
X112700000Y-99000000D03*
X113350000Y-99000000D03*
X114000000Y-99000000D03*
X114000000Y-93275000D03*
X113350000Y-93275000D03*
X112700000Y-93275000D03*
X112050000Y-93275000D03*
X111400000Y-93275000D03*
X110750000Y-93275000D03*
X110100000Y-93275000D03*
X109450000Y-93275000D03*
X108800000Y-93275000D03*
X108150000Y-93275000D03*
%TD*%
D15*
%TO.C,R5*%
X110750000Y-105425000D03*
X110750000Y-107250000D03*
%TD*%
D18*
%TO.C,C14*%
X122637500Y-81250000D03*
X124362500Y-81250000D03*
%TD*%
%TO.C,C16*%
X130100000Y-81500000D03*
X131825000Y-81500000D03*
%TD*%
%TO.C,C15*%
X122387500Y-74000000D03*
X124112500Y-74000000D03*
%TD*%
%TO.C,C2*%
X109737500Y-103000000D03*
X111462500Y-103000000D03*
%TD*%
D22*
%TO.C,U3*%
X132000000Y-84000000D03*
X131050000Y-84000000D03*
X130100000Y-84000000D03*
X130100000Y-86275000D03*
X132000000Y-86275000D03*
%TD*%
D11*
%TO.C,R8*%
X126837500Y-98750000D03*
X128662500Y-98750000D03*
%TD*%
D23*
%TO.C,D2*%
X134625000Y-83500000D03*
X136375000Y-83500000D03*
%TD*%
D24*
%TO.C,U4*%
X122112500Y-101862500D03*
X122612500Y-101862500D03*
X123112500Y-101862500D03*
X123612500Y-101862500D03*
X124112500Y-101862500D03*
X124112500Y-97637500D03*
X123612500Y-97637500D03*
X123112500Y-97637500D03*
X122612500Y-97637500D03*
X122112500Y-97637500D03*
%TD*%
D11*
%TO.C,R15*%
X118087500Y-84250000D03*
X119912500Y-84250000D03*
%TD*%
D25*
%TO.C,Q1*%
X125412500Y-82950000D03*
X125412500Y-84850000D03*
X127287500Y-83900000D03*
%TD*%
D18*
%TO.C,C1*%
X109737500Y-101500000D03*
X111462500Y-101500000D03*
%TD*%
D26*
%TO.C,D4*%
X124950000Y-87500000D03*
X127750000Y-87500000D03*
%TD*%
M02*
