M48
; DRILL file {KiCad 9.0.6} date 2026-01-15T13:00:28+0100
; FORMAT={-:-/ absolute / metric / decimal}
; #@! TF.CreationDate,2026-01-15T13:00:28+01:00
; #@! TF.GenerationSoftware,Kicad,Pcbnew,9.0.6
; #@! TF.FileFunction,Plated,1,2,PTH
FMAT,2
METRIC
; #@! TA.AperFunction,Plated,PTH,ViaDrill
T1C0.300
; #@! TA.AperFunction,Plated,PTH,ComponentDrill
T2C0.600
; #@! TA.AperFunction,Plated,PTH,ComponentDrill
T3C0.700
; #@! TA.AperFunction,Plated,PTH,ComponentDrill
T4C1.000
; #@! TA.AperFunction,Plated,PTH,ComponentDrill
T5C1.500
%
G90
G05
T1
X112.5Y-101.5
X112.5Y-102.5
X116.99Y-83.01
X117.989Y-82.25
X122.491Y-80.277
X124.112Y-75.1
X125.25Y-74.0
X125.25Y-91.0
X125.25Y-95.0
X125.5Y-81.25
X125.82Y-79.75
X126.5Y-89.75
X126.75Y-78.25
X127.0Y-102.75
X127.25Y-97.75
X128.5Y-78.5
X128.5Y-80.0
X128.5Y-81.5
X128.75Y-87.75
X128.75Y-89.0
X128.75Y-90.5
X129.75Y-96.75
X130.0Y-78.5
X130.0Y-87.75
X130.0Y-103.5
X130.066Y-80.745
X130.25Y-90.5
X132.0Y-90.25
X132.5Y-79.5
X133.25Y-89.0
X133.75Y-80.75
X133.75Y-82.0
X133.787Y-79.537
X134.0Y-78.25
X134.5Y-88.5
X140.475Y-93.5
X142.475Y-93.5
T3
X104.0Y-105.19
X104.0Y-106.46
X104.0Y-107.73
X104.0Y-109.0
X104.0Y-110.27
X104.0Y-111.54
X104.0Y-112.81
X104.0Y-114.08
X104.0Y-115.35
X104.0Y-116.62
X104.4Y-87.56
X104.4Y-88.83
X104.4Y-90.1
X104.4Y-91.37
T4
X104.475Y-94.28
X104.475Y-96.82
X104.475Y-99.36
X104.475Y-101.9
X131.46Y-75.5
X134.0Y-75.5
T5
X117.88Y-115.68
X124.23Y-113.14
T2
G00X131.015Y-95.68
M15
G01X132.115Y-95.68
M16
G05
G00X131.015Y-104.32
M15
G01X132.115Y-104.32
M16
G05
G00X135.445Y-95.68
M15
G01X136.045Y-95.68
M16
G05
G00X135.445Y-104.32
M15
G01X136.045Y-104.32
M16
G05
M30
