M48
; DRILL file {KiCad 9.0.6} date 2026-01-16T14:02:06+0100
; FORMAT={-:-/ absolute / metric / decimal}
; #@! TF.CreationDate,2026-01-16T14:02:06+01:00
; #@! TF.GenerationSoftware,Kicad,Pcbnew,9.0.6
; #@! TF.FileFunction,Plated,1,2,PTH
FMAT,2
METRIC
; #@! TA.AperFunction,Plated,PTH,ViaDrill
T1C0.300
; #@! TA.AperFunction,Plated,PTH,ComponentDrill
T2C0.600
; #@! TA.AperFunction,Plated,PTH,ComponentDrill
T3C0.700
; #@! TA.AperFunction,Plated,PTH,ComponentDrill
T4C1.000
; #@! TA.AperFunction,Plated,PTH,ComponentDrill
T5C1.500
%
G90
G05
T1
X102.95Y-110.3
X107.2Y-99.0
X107.5Y-78.5
X107.75Y-100.7
X108.578Y-100.728
X111.163Y-94.425
X111.591Y-95.101
X112.2Y-97.761
X112.55Y-103.0
X112.576Y-101.874
X112.6Y-103.9
X112.65Y-94.596
X112.75Y-83.75
X113.422Y-94.806
X114.077Y-94.346
X114.5Y-78.25
X116.99Y-83.01
X117.989Y-82.25
X122.491Y-80.277
X123.1Y-103.15
X124.112Y-75.1
X125.25Y-74.0
X125.5Y-81.25
X125.5Y-93.0
X125.75Y-95.75
X125.82Y-79.75
X126.625Y-102.875
X126.637Y-91.75
X126.75Y-97.5
X127.3Y-78.2
X128.75Y-89.0
X128.75Y-90.5
X129.85Y-95.95
X129.85Y-96.65
X129.85Y-103.7
X129.9Y-102.9
X130.0Y-87.75
X130.25Y-90.5
X132.0Y-79.75
X132.0Y-90.25
X133.25Y-89.0
X133.5Y-79.7
X133.5Y-81.0
X133.5Y-82.25
X134.5Y-88.5
T3
X104.0Y-105.19
X104.0Y-106.46
X104.0Y-107.73
X104.0Y-109.0
X104.0Y-110.27
X104.0Y-111.54
X104.0Y-112.81
X104.0Y-114.08
X104.0Y-115.35
X104.0Y-116.62
X117.46Y-90.0
X118.73Y-90.0
X120.0Y-90.0
X121.27Y-90.0
T4
X105.0Y-94.28
X105.0Y-96.82
X105.0Y-99.36
X105.0Y-101.9
X130.75Y-75.5
X133.29Y-75.5
T5
X117.88Y-115.68
X124.23Y-113.14
T2
G00X131.015Y-95.68
M15
G01X132.115Y-95.68
M16
G05
G00X131.015Y-104.32
M15
G01X132.115Y-104.32
M16
G05
G00X135.445Y-95.68
M15
G01X136.045Y-95.68
M16
G05
G00X135.445Y-104.32
M15
G01X136.045Y-104.32
M16
G05
M30
